<?xml version="1.0" standalone="no"?>
<!DOCTYPE svg PUBLIC "-//W3C//DTD SVG 20010904//EN"
 "http://www.w3.org/TR/2001/REC-SVG-20010904/DTD/svg10.dtd">
<svg version="1.0" xmlns="http://www.w3.org/2000/svg"
 width="512" height="512" viewBox="0 0 640.000000 640.000000"
 preserveAspectRatio="xMidYMid meet">

<g transform="translate(0.000000,640.000000) scale(0.100000,-0.100000)"
fill="#90ff90" stroke="none">
<path d="M0 3200 l0 -3200 549 0 549 0 7 52 c4 29 13 76 20 103 8 28 28 104
45 170 42 157 82 285 89 280 3 -1 6 9 7 23 2 45 125 346 136 331 6 -9 7 -5 3
12 -4 14 0 41 9 60 9 21 15 27 15 16 1 -10 5 -16 10 -13 15 9 -14 -102 -66
-259 -28 -82 -58 -179 -68 -215 -10 -36 -23 -85 -31 -110 -7 -25 -34 -128 -59
-230 -25 -102 -48 -193 -51 -202 -5 -17 97 -18 2051 -18 1955 0 2057 1 2052
18 -91 324 -135 466 -164 526 -26 57 -27 60 -11 50 7 -4 8 -3 4 5 -4 6 -11 9
-15 7 -11 -7 -35 40 -26 53 3 6 1 10 -5 9 -16 -4 -51 95 -53 149 -1 22 -5 37
-8 31 -11 -18 -20 42 -9 62 15 28 12 36 -6 14 -15 -19 -15 -18 -11 4 3 12 2
22 -3 22 -4 0 -13 20 -19 44 -14 56 -14 57 2 54 14 -3 36 -37 37 -56 0 -6 25
-64 55 -128 30 -63 64 -141 75 -172 10 -31 29 -82 40 -112 60 -154 101 -285
136 -425 l38 -155 538 0 538 0 0 3200 0 3200 -3200 0 -3200 0 0 -3200z m4646
2505 c34 -34 90 -158 113 -248 25 -96 36 -306 22 -432 -12 -107 -46 -255 -60
-265 -5 -3 -9 -12 -8 -20 1 -8 -2 -15 -8 -15 -5 0 -9 7 -7 15 2 8 7 33 12 55
66 307 65 490 -4 691 -49 146 -79 181 -142 169 -78 -14 -320 -237 -474 -436
-39 -52 -79 -98 -89 -103 -9 -5 -47 -39 -86 -77 -66 -64 -174 -143 -183 -134
-2 2 13 19 34 37 59 50 125 119 255 269 301 347 424 461 547 505 49 18 49 18
78 -11z m-2889 -38 c131 -67 313 -242 591 -568 50 -59 116 -128 146 -155 31
-26 54 -49 52 -52 -9 -8 -124 74 -184 132 -35 34 -67 62 -73 64 -5 2 -46 52
-91 110 -95 123 -274 307 -365 374 -136 101 -192 99 -243 -8 -89 -186 -96
-451 -18 -733 20 -75 29 -141 18 -141 -7 0 -46 117 -60 180 -40 173 -51 410
-26 542 17 88 58 199 92 251 21 32 29 37 62 37 22 -1 63 -14 99 -33z m1609
-712 c125 -32 141 -32 156 1 11 23 13 24 19 7 11 -30 -2 -73 -26 -89 -21 -13
-32 -12 -128 21 -58 19 -119 35 -136 35 -33 0 -81 18 -81 31 0 8 29 15 71 18
15 0 71 -10 125 -24z m-233 -2 c26 -9 68 -37 95 -61 37 -34 39 -38 11 -18 -91
65 -167 69 -328 17 -52 -17 -106 -31 -121 -31 -33 0 -58 26 -66 70 l-7 33 31
-23 32 -24 112 26 c138 31 179 33 241 11z m710 -265 c-28 -30 -88 -119 -151
-224 -13 -22 -21 -30 -17 -20 18 60 170 276 193 276 3 0 -8 -15 -25 -32z
m-1313 -108 c52 -69 117 -180 105 -180 -2 0 -17 24 -31 53 -27 53 -92 144
-148 207 -20 22 -23 28 -7 15 13 -11 49 -54 81 -95z m1131 -183 c-10 -9 -11
-8 -5 6 3 10 9 15 12 12 3 -3 0 -11 -7 -18z m-1163 -399 c34 -34 -6 -90 -48
-68 -35 19 -20 80 20 80 9 0 21 -5 28 -12z m1372 -4 c11 -13 10 -18 -6 -35
-25 -24 -54 -16 -54 15 0 13 3 26 7 29 11 12 40 7 53 -9z m-1266 -20 c8 -21
-1 -34 -24 -34 -22 0 -34 15 -26 35 7 20 42 19 50 -1z m1131 -14 c0 -18 -6
-26 -23 -28 -27 -4 -40 22 -22 44 19 22 45 13 45 -16z m989 -57 c56 -41 57
-47 9 -43 -13 1 -23 0 -23 -2 0 -2 15 -49 34 -104 34 -102 64 -169 98 -217 24
-34 17 -45 -16 -24 -26 18 -101 165 -136 267 -12 36 -37 95 -56 133 -19 37
-34 70 -34 73 0 6 26 -12 124 -83z m-2984 37 c-6 -10 -33 -79 -60 -151 -70
-186 -135 -299 -170 -299 -7 0 -3 14 8 33 63 102 107 210 114 277 3 23 0 24
-42 21 -27 -1 -41 1 -35 6 30 28 157 118 164 118 5 0 13 3 17 8 13 13 15 8 4
-13z m2283 -32 c-6 -75 -28 -130 -69 -171 -57 -56 -97 -72 -190 -72 -69 0 -85
3 -117 25 -40 28 -77 86 -77 122 0 20 10 29 51 46 27 12 54 20 58 17 5 -2 11
-22 15 -44 7 -47 71 -121 103 -121 51 0 122 110 93 145 -10 12 -10 15 0 15 9
0 11 11 7 35 -5 33 -5 34 36 43 23 6 54 10 68 11 25 1 26 0 22 -51z m-1648 29
c49 -13 50 -14 50 -53 1 -21 -2 -44 -6 -49 -12 -16 43 -107 73 -125 25 -13 30
-13 55 2 30 17 83 86 81 103 -1 6 2 20 6 33 6 17 13 21 28 16 41 -13 88 -46
88 -63 0 -32 -59 -112 -93 -126 -106 -44 -220 -22 -299 56 -50 50 -68 94 -68
172 0 54 3 55 85 34z m2034 -251 c-3 -3 -11 5 -18 17 -13 21 -12 21 5 5 10
-10 16 -20 13 -22z m-2481 -33 c-11 -32 -23 -59 -28 -61 -4 -2 -6 -12 -3 -22
3 -11 0 -20 -6 -20 -6 0 -11 -10 -11 -23 0 -30 -62 -134 -100 -168 -15 -14
-53 -34 -84 -44 l-56 -19 0 -46 c0 -37 5 -52 25 -70 14 -13 25 -35 25 -48 0
-22 3 -24 30 -18 71 15 91 15 38 0 -32 -9 -58 -22 -58 -29 0 -27 72 -155 117
-206 27 -30 55 -66 65 -79 l16 -25 139 72 c189 97 488 220 515 211 4 -2 -36
-18 -89 -36 -211 -72 -550 -238 -545 -267 2 -8 14 -32 28 -52 26 -39 30 -53
14 -53 -5 0 -10 5 -10 10 0 17 -18 11 -22 -7 -3 -14 -7 -12 -20 12 -9 17 -25
38 -37 49 -20 18 -21 18 -93 -27 -40 -25 -117 -83 -172 -129 -112 -94 -156
-127 -116 -87 62 62 173 151 258 208 50 34 92 65 92 70 0 5 -19 31 -43 57 -82
92 -124 152 -147 208 -24 60 -25 61 -65 46 -14 -5 -24 -6 -21 -1 13 20 44 207
37 214 -5 5 -17 4 -27 -2 -33 -18 -114 -50 -114 -45 0 3 8 13 18 24 20 22 92
160 92 178 0 7 5 12 11 12 5 0 8 4 5 9 -3 5 1 14 9 21 12 10 18 10 30 0 13
-11 14 -10 10 1 -3 9 6 19 27 28 52 23 54 23 36 8 -10 -8 -15 -17 -12 -20 3
-3 -4 -19 -17 -36 -19 -25 -25 -28 -38 -18 -12 10 -13 9 -6 -3 5 -8 8 -24 6
-34 -2 -17 1 -18 31 -11 18 4 43 8 55 9 12 1 19 3 17 5 -2 2 5 11 16 18 16 11
24 12 35 3 10 -8 15 -8 21 1 4 8 3 9 -4 5 -7 -4 -12 -1 -12 8 0 21 66 107 76
98 4 -4 4 -2 1 5 -11 18 60 173 78 173 1 0 -7 -26 -17 -57z m2505 -19 c6 -16
13 -31 16 -34 11 -9 71 -100 71 -108 0 -4 -5 0 -11 8 -9 13 -10 13 -6 0 2 -8
10 -15 18 -15 8 -1 13 -7 11 -14 -1 -7 2 -10 7 -7 5 4 18 -4 28 -16 10 -13 27
-24 38 -26 11 -1 41 -5 68 -8 26 -4 47 -4 47 0 0 4 -11 24 -25 44 -23 33 -24
38 -10 49 26 18 92 -15 99 -49 3 -15 12 -43 20 -63 8 -19 15 -38 15 -41 0 -3
12 -15 26 -26 14 -11 24 -26 21 -34 -3 -7 0 -16 6 -20 7 -4 8 -3 4 4 -11 19
-1 14 19 -8 18 -20 18 -20 -31 -5 -85 27 -108 30 -102 14 16 -43 38 -132 41
-166 2 -22 7 -45 11 -51 5 -8 2 -10 -8 -6 -9 3 -16 12 -16 19 0 17 -28 40 -38
31 -4 -4 2 -14 12 -22 19 -14 19 -14 -2 -14 -13 0 -22 -6 -22 -15 0 -34 -43
-96 -136 -199 -53 -59 -95 -108 -93 -109 108 -62 323 -233 424 -339 l80 -83
-85 81 c-133 125 -390 324 -420 324 -6 0 -24 -21 -40 -47 -29 -46 -30 -46 -30
-17 0 16 4 44 9 62 9 31 8 34 -27 56 -20 12 -76 42 -124 66 -48 25 -85 46 -83
48 3 3 135 -61 214 -104 27 -15 34 -16 38 -5 3 7 25 36 49 65 104 122 144 186
144 232 0 14 -38 28 -128 45 -34 6 -61 14 -58 16 4 4 121 -18 172 -32 18 -6
24 2 45 54 13 34 27 61 31 61 5 0 8 16 8 35 0 30 -4 36 -27 41 -56 14 -142 64
-176 104 -46 54 -110 182 -110 219 0 17 -4 28 -9 25 -4 -3 -8 0 -8 6 0 22 24
4 33 -26z m232 -105 c11 -17 -1 -21 -15 -4 -8 9 -8 15 -2 15 6 0 14 -5 17 -11z
m-100 -248 l30 -11 -30 5 c-77 14 -461 17 -561 5 -120 -14 -154 -7 -42 8 93
13 562 8 603 -7z m-2282 -8 c-62 -2 -164 -2 -225 0 -62 1 -12 3 112 3 124 0
174 -2 113 -3z m-400 -10 c-13 -2 -35 -2 -50 0 -16 2 -5 4 22 4 28 0 40 -2 28
-4z m595 0 c-10 -2 -28 -2 -40 0 -13 2 -5 4 17 4 22 1 32 -1 23 -4z m77 -3 c3
-5 -1 -10 -9 -10 -8 0 -18 5 -21 10 -3 6 1 10 9 10 8 0 18 -4 21 -10z m1303 3
c-10 -2 -28 -2 -40 0 -13 2 -5 4 17 4 22 1 32 -1 23 -4z m162 -43 l65 -7 -55
0 c-30 0 -86 3 -125 7 l-70 7 60 0 c33 0 89 -3 125 -7z m-1650 -11 c-85 -4
-179 -12 -209 -18 -29 -6 -63 -11 -75 -10 -23 1 35 14 124 28 30 5 114 8 185
8 l130 0 -155 -8z m1805 -8 c26 -6 31 -9 15 -9 -14 -1 -43 3 -65 7 -26 6 -31
9 -15 9 14 1 43 -3 65 -7z m93 -18 c-10 -2 -26 -2 -35 0 -10 3 -2 5 17 5 19 0
27 -2 18 -5z m-2273 -19 c-33 -7 -67 -13 -75 -13 -27 1 74 27 105 27 19 0 7
-5 -30 -14z m2380 7 c26 -6 31 -9 15 -9 -14 -1 -43 3 -65 7 -26 6 -31 9 -15 9
14 1 43 -3 65 -7z m-517 -8 c-10 -2 -28 -2 -40 0 -13 2 -5 4 17 4 22 1 32 -1
23 -4z m165 -23 c32 -13 2 -11 -78 6 l-70 14 63 -6 c35 -3 73 -9 85 -14z m430
13 c-7 -2 -19 -2 -25 0 -7 3 -2 5 12 5 14 0 19 -2 13 -5z m-2573 -13 c-14 -4
-34 -8 -45 -8 l-20 -1 20 9 c11 5 31 8 45 8 l25 0 -25 -8z m2255 -25 c53 -17
34 -18 -35 0 -30 7 -44 13 -30 13 14 0 43 -5 65 -13z m-1650 -5 c-11 -5 -27
-9 -35 -9 -9 0 -8 4 5 9 11 5 27 9 35 9 9 0 8 -4 -5 -9z m-95 -25 c-46 -18
-64 -17 -25 0 17 8 37 14 45 14 8 0 -1 -7 -20 -14z m1855 0 l30 -14 -30 6
c-16 3 -37 9 -45 14 -27 15 11 10 45 -6z m-400 -13 c-3 -3 -11 0 -18 7 -9 10
-8 11 6 5 10 -3 15 -9 12 -12z m-1584 -32 c-41 -16 -76 -28 -78 -26 -5 5 119
55 137 55 8 0 -19 -13 -59 -29z m1601 -3 c32 -12 56 -23 53 -25 -6 -7 -134 39
-142 50 -4 8 0 9 13 3 10 -4 45 -17 76 -28z m116 -3 c51 -20 92 -38 90 -40 -2
-2 -49 14 -104 36 -54 21 -94 39 -89 40 6 0 52 -16 103 -36z m342 26 c13 -9
13 -10 0 -10 -8 0 -22 5 -30 10 -13 9 -13 10 0 10 8 0 22 -5 30 -10z m80 -35
c14 -8 21 -14 15 -14 -5 0 -21 6 -35 14 -14 8 -20 14 -15 14 6 0 21 -6 35 -14z
m-2231 -19 c-10 -9 -169 -86 -169 -81 0 6 151 84 164 85 5 0 7 -2 5 -4z m1880
-36 c117 -43 125 -45 116 -30 -4 6 1 7 11 3 12 -4 14 -8 5 -11 -8 -3 -7 -8 6
-19 22 -18 19 -17 -117 36 -124 49 -148 59 -137 60 4 1 56 -17 116 -39z m87
-6 c18 -14 18 -14 -6 -3 -31 14 -36 19 -24 19 6 0 19 -7 30 -16z m-338 -27
c28 -15 52 -30 52 -32 0 -3 -27 8 -60 25 -33 17 -60 33 -60 36 0 7 0 7 68 -29z
m-1238 3 c0 -5 -6 -10 -13 -10 -23 0 -192 -116 -362 -247 -164 -127 -165 -128
-165 -168 -1 -34 -2 -37 -12 -21 -11 19 -11 19 -26 0 -12 -16 -14 -16 -9 -1 4
9 2 17 -4 17 -12 0 -184 -170 -227 -225 -18 -22 -32 -33 -32 -26 0 19 254 275
311 314 26 18 109 80 185 138 144 109 239 176 308 216 47 26 46 26 46 13z m46
-42 c-79 -90 -174 -213 -229 -296 -75 -116 -79 -121 -61 -82 38 80 195 292
287 388 57 59 59 53 3 -10z m1189 -51 c148 -162 308 -441 304 -531 0 -12 -9 6
-19 39 -50 169 -182 378 -335 530 -38 38 -56 59 -38 47 17 -12 57 -50 88 -85z
m231 -59 c138 -98 254 -187 254 -194 0 -2 -33 20 -72 50 -40 30 -135 98 -210
151 -76 53 -138 99 -138 101 0 9 39 -16 166 -108z m314 -240 c0 -12 -6 -9 -26
13 -19 22 -19 22 4 8 12 -8 22 -17 22 -21z m47 10 c-3 -8 -6 -5 -6 6 -1 11 2
17 5 13 3 -3 4 -12 1 -19z m6 -60 c2 -7 4 -37 3 -66 -1 -29 2 -56 6 -58 5 -3
6 -10 2 -15 -3 -5 -2 -15 4 -22 14 -19 23 -49 12 -42 -6 3 -10 13 -10 21 0 8
-4 13 -9 10 -5 -4 -12 0 -14 6 -3 7 -6 2 -7 -12 -4 -43 -28 69 -29 133 -1 50
1 57 18 57 10 0 21 -6 24 -12z m-2114 -67 c-12 -23 -24 -39 -26 -37 -3 2 5 23
17 46 12 23 24 40 27 37 3 -3 -5 -24 -18 -46z m-252 -18 c-3 -10 -5 -2 -5 17
0 19 2 27 5 18 2 -10 2 -26 0 -35z m-54 2 c-3 -9 -8 -14 -10 -11 -3 3 -2 9 2
15 9 16 15 13 8 -4z m252 -106 c-17 -42 -23 -52 -19 -29 7 36 35 102 41 96 2
-1 -8 -32 -22 -67z m-275 4 c-11 -17 -11 -17 -6 0 3 10 7 26 7 35 1 15 2 15 6
0 2 -10 -1 -25 -7 -35z m67 5 c-3 -8 -6 -5 -6 6 -1 11 2 17 5 13 3 -3 4 -12 1
-19z m2432 -76 c7 -12 9 -27 6 -32 -3 -5 0 -12 6 -16 8 -4 9 -3 5 4 -4 7 -5
12 -2 12 3 0 10 -9 16 -20 6 -11 7 -19 1 -18 -9 3 -11 -1 -11 -23 0 -8 4 -8
13 -1 10 8 16 6 26 -10 7 -11 8 -17 2 -14 -7 4 -8 1 -5 -8 3 -9 10 -13 15 -10
5 3 9 3 9 0 0 -2 3 -11 6 -19 3 -9 -3 -16 -15 -20 -12 -3 -21 -11 -21 -17 0
-10 3 -10 15 0 12 10 15 10 15 -3 0 -9 6 -15 13 -13 6 1 9 1 5 -1 -5 -3 -8
-14 -8 -26 0 -16 3 -18 9 -9 13 21 21 19 36 -8 17 -29 19 -52 4 -30 -8 12 -9
9 -5 -12 5 -23 3 -26 -10 -21 -13 5 -15 3 -6 -13 7 -14 6 -22 -3 -31 -10 -10
-14 -9 -19 2 -3 8 0 15 7 16 9 0 9 2 -1 6 -6 2 -10 9 -7 14 4 5 1 17 -5 26
-11 17 -11 17 -6 -1 9 -27 -14 -7 -37 33 -16 27 -16 31 -3 31 9 0 16 -8 17
-17 0 -10 3 -13 5 -6 3 6 -2 23 -11 37 -11 16 -15 36 -12 53 6 25 5 24 -9 -5
-8 -18 -12 -38 -9 -45 4 -7 0 -3 -9 7 -8 10 -13 22 -11 27 3 4 0 9 -6 11 -5 2
-19 23 -30 47 -17 40 -18 42 -2 30 17 -13 17 -13 1 7 -20 22 -36 100 -19 90 6
-4 7 4 0 26 -5 18 -9 34 -9 35 0 8 49 -46 59 -65z m-2451 22 c-3 -14 -5 -12
-10 9 -3 19 -2 25 4 19 6 -6 8 -18 6 -28z m-77 -31 c-12 -20 -14 -14 -5 12 4
9 9 14 11 11 3 -2 0 -13 -6 -23z m62 -28 c-3 -9 -8 -14 -10 -11 -3 3 -2 9 2
15 9 16 15 13 8 -4z m-53 -16 c0 -6 -4 -7 -10 -4 -5 3 -10 1 -10 -5 0 -6 -4
-8 -10 -5 -16 10 -11 21 10 22 11 1 20 -3 20 -8z m40 -20 c0 -6 -4 -7 -10 -4
-5 3 -10 11 -10 16 0 6 5 7 10 4 6 -3 10 -11 10 -16z m-24 -11 c4 -6 3 -8 -3
-5 -6 4 -27 -20 -47 -53 -21 -33 -39 -60 -42 -60 -3 0 -2 5 1 10 3 6 3 15 -1
21 -4 8 -9 7 -15 -2 -6 -10 -9 -10 -9 -2 0 16 17 26 25 13 9 -15 25 -2 25 21
0 11 5 17 10 14 6 -3 11 0 12 7 0 7 2 18 3 23 2 6 3 13 4 18 2 11 29 8 37 -5z
m-3 -44 c-4 -10 -9 -12 -15 -6 -12 12 -1 35 12 27 5 -3 6 -13 3 -21z m-103
-99 c0 17 2 17 10 5 8 -12 10 -12 10 -1 0 8 3 12 6 9 3 -4 1 -16 -5 -27 -9
-15 -8 -26 1 -40 10 -16 9 -25 -1 -44 -11 -20 -18 -23 -40 -17 -14 4 -25 12
-23 19 1 6 -2 11 -8 11 -5 0 -10 -8 -11 -17 0 -11 -3 -13 -6 -6 -2 7 5 25 16
39 12 15 21 34 21 42 0 13 -3 12 -15 -4 -12 -15 -11 -10 2 19 17 37 17 37 30
15 11 -21 12 -22 13 -3z m54 -29 c-7 -17 -28 -18 -22 -1 2 6 6 9 11 8 4 -2 7
2 7 9 0 6 2 9 5 6 3 -3 3 -13 -1 -22z m2723 -118 c-3 -8 -6 -5 -6 6 -1 11 2
17 5 13 3 -3 4 -12 1 -19z m-2872 -27 c2 -12 0 -19 -6 -16 -5 4 -7 11 -4 16 4
5 -1 12 -9 15 -9 3 -13 11 -10 16 8 13 23 -3 29 -31z m41 -8 c-3 -4 -6 -1 -6
6 0 7 -4 9 -10 6 -6 -4 -7 1 -3 11 6 15 7 15 15 -1 6 -9 7 -19 4 -22z m27 2
c-3 -9 -8 -14 -10 -11 -3 3 -2 9 2 15 9 16 15 13 8 -4z m2781 -41 c3 -8 2 -12
-4 -9 -6 3 -10 10 -10 16 0 14 7 11 14 -7z m-184 -608 c0 -251 0 -254 -21
-259 -39 -10 -79 3 -80 27 0 11 -3 15 -6 8 -8 -21 -60 -42 -103 -42 -53 0 -92
21 -127 67 -24 31 -28 47 -31 112 -3 70 -1 80 26 122 51 79 135 101 205 54
l37 -26 0 90 c0 98 -2 96 73 100 l27 1 0 -254z m-964 229 c27 -8 64 -27 82
-42 l33 -28 -34 -33 -34 -33 -44 26 c-112 63 -229 -4 -229 -132 0 -69 28 -115
86 -143 54 -27 102 -21 153 17 l33 26 36 -36 36 -36 -25 -21 c-69 -60 -190
-80 -277 -45 -56 23 -125 101 -142 160 -15 55 -9 149 14 194 59 113 185 164
312 126z m-1475 -120 c33 -69 64 -125 68 -125 8 0 59 99 102 200 l21 50 64 0
64 0 0 -244 c0 -142 -4 -247 -9 -251 -6 -3 -28 -3 -50 1 l-41 7 -1 161 0 161
-61 -122 c-55 -111 -64 -123 -88 -123 -24 0 -32 12 -88 123 l-61 122 -1 -163
c0 -180 0 -180 -65 -168 l-35 7 0 244 0 245 61 0 60 0 60 -125z m1089 -44 l0
-48 -40 -7 c-60 -9 -74 -38 -80 -165 l-5 -105 -45 0 -45 -1 -3 183 -2 183 47
-3 c41 -3 48 -6 53 -28 5 -21 8 -22 16 -9 14 24 56 49 81 49 21 0 23 -5 23
-49z m819 23 c94 -50 129 -160 81 -254 -56 -111 -205 -136 -302 -50 -65 56
-84 132 -53 208 46 109 170 153 274 96z m877 1 c54 -35 64 -68 64 -212 l0
-133 -50 0 c-37 0 -50 4 -50 15 0 11 -7 10 -35 -7 -76 -44 -186 -2 -201 77
-17 93 73 158 189 136 41 -7 47 -6 47 9 0 34 -35 52 -92 48 -29 -2 -61 -8 -70
-12 -12 -6 -21 0 -33 23 -9 18 -13 36 -10 41 3 5 27 16 53 25 57 18 153 13
188 -10z m-2266 -95 c0 -62 5 -120 12 -135 22 -48 97 -46 123 5 11 20 15 60
15 135 l0 105 50 0 50 0 0 -179 0 -179 -34 -6 c-43 -8 -66 1 -66 26 0 18 -2
18 -31 -6 -41 -35 -123 -37 -164 -4 -45 35 -55 74 -55 218 l0 130 50 0 50 0 0
-110z m-1019 -43 c-10 -9 -11 -8 -5 6 3 10 9 15 12 12 3 -3 0 -11 -7 -18z
m-18 -37 c-5 -19 -23 -39 -23 -25 0 9 20 45 24 45 2 0 2 -9 -1 -20z m3487 -7
c0 -10 -20 -40 -20 -31 0 3 -3 13 -6 22 -4 11 -1 16 10 16 9 0 16 -3 16 -7z"/>
<path d="M1837 3473 c3 -7 6 -13 8 -13 2 0 5 6 8 13 3 8 -1 14 -8 14 -7 0 -11
-6 -8 -14z"/>
<path d="M4545 3400 c3 -5 8 -10 11 -10 2 0 4 5 4 10 0 6 -5 10 -11 10 -5 0
-7 -4 -4 -10z"/>
<path d="M4440 2090 c0 -5 7 -7 15 -4 8 4 15 8 15 10 0 2 -7 4 -15 4 -8 0 -15
-4 -15 -10z"/>
<path d="M1810 2014 c0 -5 6 -18 13 -28 13 -17 14 -18 20 -2 4 10 3 14 -2 11
-6 -3 -14 3 -20 12 -6 10 -11 13 -11 7z"/>
<path d="M1807 1953 c-8 -13 2 -43 14 -43 10 0 10 8 0 34 -5 12 -10 16 -14 9z"/>
<path d="M1844 1936 c0 -13 4 -22 9 -19 10 6 9 31 -2 37 -5 3 -8 -5 -7 -18z"/>
<path d="M4169 1181 c-34 -35 -39 -91 -12 -131 24 -35 33 -40 75 -40 51 0 78
35 78 102 0 92 -79 130 -141 69z"/>
<path d="M3733 1195 c-32 -23 -47 -77 -33 -120 15 -44 44 -65 91 -65 50 0 89
44 89 102 0 76 -87 125 -147 83z"/>
<path d="M4596 1075 c-36 -36 -9 -79 49 -79 43 0 77 29 73 63 -3 24 -8 26 -54
29 -37 2 -56 -2 -68 -13z"/>
<path d="M4954 1005 c2 -17 4 -33 5 -37 0 -5 6 -8 12 -8 8 0 8 4 -1 15 -6 8
-9 18 -7 23 3 4 2 14 -3 22 -6 10 -8 6 -6 -1544z"/>
</g>
</svg>
